<?xml version="1.0" encoding="UTF-8"?>
<svg xmlns="http://www.w3.org/2000/svg" viewBox="0 0 512 512" width="512" height="512">
  <circle cx="256" cy="256" r="256" fill="#3498db"/>
  <g fill="#ffffff">
    <!-- Checklist Icon -->
    <path d="M346 120H166c-8.284 0-15 6.716-15 15v242c0 8.284 6.716 15 15 15h180c8.284 0 15-6.716 15-15V135c0-8.284-6.716-15-15-15zm-15 242H181V150h150v212z"/>
    
    <!-- First Item -->
    <rect x="196" y="180" width="120" height="10" rx="5"/>
    <rect x="196" y="200" width="80" height="6" rx="3"/>
    
    <!-- Checkbox 1 (checked) -->
    <rect x="166" y="180" width="20" height="20" rx="4"/>
    <path d="M171 190l3 3 8-8" stroke="#3498db" stroke-width="3" fill="none"/>
    
    <!-- Second Item -->
    <rect x="196" y="240" width="120" height="10" rx="5"/>
    <rect x="196" y="260" width="80" height="6" rx="3"/>
    
    <!-- Checkbox 2 -->
    <rect x="166" y="240" width="20" height="20" rx="4"/>
    
    <!-- Third Item -->
    <rect x="196" y="300" width="120" height="10" rx="5"/>
    <rect x="196" y="320" width="80" height="6" rx="3"/>
    
    <!-- Checkbox 3 -->
    <rect x="166" y="300" width="20" height="20" rx="4"/>
  </g>
</svg> 